<?xml version="1.0" encoding="iso-8859-1"?>
<!-- Generator: Adobe Illustrator 19.0.0, SVG Export Plug-In . SVG Version: 6.00 Build 0)  -->
<svg version="1.1" id="Layer_1" xmlns="http://www.w3.org/2000/svg" xmlns:xlink="http://www.w3.org/1999/xlink" x="0px" y="0px"
	 viewBox="0 0 512.001 512.001" style="enable-background:new 0 0 512.001 512.001;" xml:space="preserve">
<path style="fill:#82D78C;" d="M260.772,1.403c-2.905-1.87-6.638-1.87-9.543,0c-69.956,44.956-118.814,146.021-118.814,245.77
	c0,88.987,39.974,159.796,118.814,210.46c1.452,0.936,3.112,1.401,4.771,1.401c1.66,0,3.319-0.466,4.771-1.401
	c78.84-50.663,118.814-121.474,118.814-210.46C379.586,147.425,330.729,46.36,260.772,1.403z"/>
<path style="fill:#A0EB87;" d="M260.772,457.634c78.84-50.664,118.814-121.474,118.814-210.46
	c0-99.749-48.857-200.813-118.814-245.77C259.32,0.468,257.66,0,256.001,0v459.035C257.66,459.035,259.32,458.569,260.772,457.634z"
	/>
<g>
	<path style="fill:#82D78C;" d="M378.728,225.204c-0.532-7.54-1.377-15.05-2.433-22.532L256.001,322.966v21.311
		c2.259,0,4.518-0.862,6.241-2.586L378.728,225.204z"/>
	<path style="fill:#82D78C;" d="M314.094,51.495c-3.663-4.718-7.447-9.256-11.351-13.614l-46.742,46.742v21.311
		c2.259,0,4.517-0.862,6.241-2.586L314.094,51.495z"/>
	<path style="fill:#82D78C;" d="M256.001,164.07v21.311c2.259,0,4.518-0.862,6.241-2.586l82.423-82.423
		c-2.762-5.544-5.672-10.957-8.714-16.252L256.001,164.07z"/>
	<path style="fill:#82D78C;" d="M371.791,311.59c2.536-9.946,4.451-20.184,5.746-30.711L256.001,402.414v21.311
		c2.259,0,4.518-0.862,6.241-2.586L371.791,311.59z"/>
	<path style="fill:#82D78C;" d="M256.001,243.518v21.311c2.259,0,4.518-0.862,6.241-2.586l104.574-104.574
		c-1.821-6.407-3.796-12.747-5.975-18.99L256.001,243.518z"/>
</g>
<path style="fill:#76B580;" d="M256.001,52.968c-4.875,0-8.828,3.953-8.828,8.828v58.138l-57.412-57.412
	c-3.415,4.89-6.696,9.931-9.85,15.115l67.264,67.264v54.483l-85.942-85.942c-2.574,5.805-4.995,11.705-7.254,17.711l93.196,93.196
	v54.483L141.188,172.845c-1.615,6.876-2.967,13.827-4.15,20.815l110.136,110.136v54.483L132.522,243.626
	c-0.013,1.183-0.107,2.366-0.107,3.548c0,7.578,0.397,14.974,0.977,22.287l113.782,113.782v119.931c0,4.875,3.953,8.828,8.828,8.828
	c4.875,0,8.828-3.953,8.828-8.828V61.796C264.828,56.92,260.876,52.968,256.001,52.968z"/>
<g>
</g>
<g>
</g>
<g>
</g>
<g>
</g>
<g>
</g>
<g>
</g>
<g>
</g>
<g>
</g>
<g>
</g>
<g>
</g>
<g>
</g>
<g>
</g>
<g>
</g>
<g>
</g>
<g>
</g>
</svg>
